<?xml version="1.0" encoding="utf-8"?>
<!-- Generator: Adobe Illustrator 24.0.1, SVG Export Plug-In . SVG Version: 6.00 Build 0)  -->
<svg version="1.1" id="Layer_1" xmlns="http://www.w3.org/2000/svg" xmlns:xlink="http://www.w3.org/1999/xlink" 
	width="150px" height="39px" viewBox="0 0 50 39" viewBox="0 0 1920 1080" style="enable-background:new 0 0 1920 1080;" xml:space="preserve">
<style type="text/css">
	.st0{fill:#333333;}
	.st1{fill:#333333;}
	.st2{font-family:'Montserrat-Medium';}
	.st3{font-size:60.4991px;}
	.st4{fill:#333333;}
</style>
<g>
	<path class="st0" d="M735.46,594h-30.58c-0.81,0-1.63,0.24-2.21,0.78c-0.81,0.74-1.12,1.73-0.97,2.66l4.63,28.56h26.6l5.61-28.36
		c0.16-0.81,0.03-1.68-0.48-2.36C737.43,594.44,736.45,594,735.46,594L735.46,594z"/>
	<ellipse class="st0" cx="640.49" cy="577.86" rx="21.26" ry="20.17"/>
	<polygon class="st1" points="867.01,644 586.91,644 527.6,378 476.98,378 476.98,366 537.8,366 597.11,632 867.01,632 	"/>
	<ellipse class="st1" cx="627.46" cy="666.7" rx="26.98" ry="25.59"/>
	<ellipse class="st1" cx="828.89" cy="666.7" rx="26.98" ry="25.59"/>
	<rect x="577.12" y="582" class="st1" width="270.7" height="1"/>
	<text transform="matrix(1 0 0 1 586.1431 528.1836)" class="st2 st3 st4">SHOPTOGETHER</text>
</g>
</svg>
